<mxfile host="65bd71144e">
    <diagram id="bpbkTxAe3MsM5qXTKhsR" name="Page-1">
        <mxGraphModel dx="1075" dy="475" grid="1" gridSize="10" guides="1" tooltips="1" connect="1" arrows="1" fold="1" page="1" pageScale="1" pageWidth="1100" pageHeight="850" math="0" shadow="0">
            <root>
                <mxCell id="0"/>
                <mxCell id="1" parent="0"/>
                <mxCell id="200" value="" style="group;movable=0;resizable=0;rotatable=0;deletable=0;editable=0;connectable=0;" vertex="1" connectable="0" parent="1">
                    <mxGeometry x="10" y="40" width="1050" height="420" as="geometry"/>
                </mxCell>
                <mxCell id="154" value="Strategy Design Pattern" style="text;html=1;align=center;verticalAlign=middle;resizable=0;points=[];autosize=1;strokeColor=#C73500;fillColor=#fa6800;fontColor=#000000;fontSize=25;movable=0;rotatable=0;deletable=0;editable=0;connectable=0;" parent="200" vertex="1">
                    <mxGeometry x="60" width="290" height="40" as="geometry"/>
                </mxCell>
                <mxCell id="160" value="&lt;&lt;interface&gt;&gt;&#10;Strategy" style="swimlane;fontStyle=1;align=center;verticalAlign=top;childLayout=stackLayout;horizontal=1;startSize=50;horizontalStack=0;resizeParent=1;resizeParentMax=0;resizeLast=0;collapsible=1;marginBottom=0;fontSize=12;fillColor=#fa6800;fontColor=#000000;strokeColor=#C73500;movable=0;resizable=0;rotatable=0;deletable=0;editable=0;connectable=0;" parent="200" vertex="1">
                    <mxGeometry x="650" y="160" width="160" height="84" as="geometry"/>
                </mxCell>
                <mxCell id="162" value="" style="line;strokeWidth=1;fillColor=none;align=left;verticalAlign=middle;spacingTop=-1;spacingLeft=3;spacingRight=3;rotatable=0;labelPosition=right;points=[];portConstraint=eastwest;strokeColor=inherit;fontSize=14;movable=0;resizable=0;deletable=0;editable=0;connectable=0;" parent="160" vertex="1">
                    <mxGeometry y="50" width="160" height="8" as="geometry"/>
                </mxCell>
                <mxCell id="163" value="+Execute():void" style="text;strokeColor=none;fillColor=none;align=left;verticalAlign=top;spacingLeft=4;spacingRight=4;overflow=hidden;rotatable=0;points=[[0,0.5],[1,0.5]];portConstraint=eastwest;fontSize=12;movable=0;resizable=0;deletable=0;editable=0;connectable=0;" parent="160" vertex="1">
                    <mxGeometry y="58" width="160" height="26" as="geometry"/>
                </mxCell>
                <mxCell id="164" value="ConcreteStrategyA" style="swimlane;fontStyle=1;align=center;verticalAlign=top;childLayout=stackLayout;horizontal=1;startSize=26;horizontalStack=0;resizeParent=1;resizeParentMax=0;resizeLast=0;collapsible=1;marginBottom=0;fontSize=12;movable=0;resizable=0;rotatable=0;deletable=0;editable=0;connectable=0;" parent="200" vertex="1">
                    <mxGeometry x="480" y="360" width="160" height="60" as="geometry"/>
                </mxCell>
                <mxCell id="166" value="" style="line;strokeWidth=1;fillColor=none;align=left;verticalAlign=middle;spacingTop=-1;spacingLeft=3;spacingRight=3;rotatable=0;labelPosition=right;points=[];portConstraint=eastwest;strokeColor=inherit;fontSize=14;movable=0;resizable=0;deletable=0;editable=0;connectable=0;" parent="164" vertex="1">
                    <mxGeometry y="26" width="160" height="8" as="geometry"/>
                </mxCell>
                <mxCell id="167" value="+Execute():void" style="text;strokeColor=none;fillColor=none;align=left;verticalAlign=top;spacingLeft=4;spacingRight=4;overflow=hidden;rotatable=0;points=[[0,0.5],[1,0.5]];portConstraint=eastwest;fontSize=12;movable=0;resizable=0;deletable=0;editable=0;connectable=0;" parent="164" vertex="1">
                    <mxGeometry y="34" width="160" height="26" as="geometry"/>
                </mxCell>
                <mxCell id="168" value="ConcreteStrategyB" style="swimlane;fontStyle=1;align=center;verticalAlign=top;childLayout=stackLayout;horizontal=1;startSize=26;horizontalStack=0;resizeParent=1;resizeParentMax=0;resizeLast=0;collapsible=1;marginBottom=0;fontSize=12;movable=0;resizable=0;rotatable=0;deletable=0;editable=0;connectable=0;" parent="200" vertex="1">
                    <mxGeometry x="650" y="360" width="160" height="60" as="geometry"/>
                </mxCell>
                <mxCell id="169" value="" style="line;strokeWidth=1;fillColor=none;align=left;verticalAlign=middle;spacingTop=-1;spacingLeft=3;spacingRight=3;rotatable=0;labelPosition=right;points=[];portConstraint=eastwest;strokeColor=inherit;fontSize=14;movable=0;resizable=0;deletable=0;editable=0;connectable=0;" parent="168" vertex="1">
                    <mxGeometry y="26" width="160" height="8" as="geometry"/>
                </mxCell>
                <mxCell id="170" value="+Execute():void" style="text;strokeColor=none;fillColor=none;align=left;verticalAlign=top;spacingLeft=4;spacingRight=4;overflow=hidden;rotatable=0;points=[[0,0.5],[1,0.5]];portConstraint=eastwest;fontSize=12;movable=0;resizable=0;deletable=0;editable=0;connectable=0;" parent="168" vertex="1">
                    <mxGeometry y="34" width="160" height="26" as="geometry"/>
                </mxCell>
                <mxCell id="171" value="ConcreteStrategyC" style="swimlane;fontStyle=1;align=center;verticalAlign=top;childLayout=stackLayout;horizontal=1;startSize=26;horizontalStack=0;resizeParent=1;resizeParentMax=0;resizeLast=0;collapsible=1;marginBottom=0;fontSize=12;movable=0;resizable=0;rotatable=0;deletable=0;editable=0;connectable=0;" parent="200" vertex="1">
                    <mxGeometry x="820" y="360" width="160" height="60" as="geometry"/>
                </mxCell>
                <mxCell id="172" value="" style="line;strokeWidth=1;fillColor=none;align=left;verticalAlign=middle;spacingTop=-1;spacingLeft=3;spacingRight=3;rotatable=0;labelPosition=right;points=[];portConstraint=eastwest;strokeColor=inherit;fontSize=14;movable=0;resizable=0;deletable=0;editable=0;connectable=0;" parent="171" vertex="1">
                    <mxGeometry y="26" width="160" height="8" as="geometry"/>
                </mxCell>
                <mxCell id="173" value="+Execute():void" style="text;strokeColor=none;fillColor=none;align=left;verticalAlign=top;spacingLeft=4;spacingRight=4;overflow=hidden;rotatable=0;points=[[0,0.5],[1,0.5]];portConstraint=eastwest;fontSize=12;movable=0;resizable=0;deletable=0;editable=0;connectable=0;" parent="171" vertex="1">
                    <mxGeometry y="34" width="160" height="26" as="geometry"/>
                </mxCell>
                <mxCell id="174" value="Context" style="swimlane;fontStyle=1;align=center;verticalAlign=top;childLayout=stackLayout;horizontal=1;startSize=26;horizontalStack=0;resizeParent=1;resizeParentMax=0;resizeLast=0;collapsible=1;marginBottom=0;fontSize=12;fillColor=#FFFFFF;fontColor=#000000;strokeColor=#F0F0F0;movable=0;resizable=0;rotatable=0;deletable=0;editable=0;connectable=0;" parent="200" vertex="1">
                    <mxGeometry x="280" y="160" width="160" height="90" as="geometry"/>
                </mxCell>
                <mxCell id="175" value="- strategy : IStrategy" style="text;strokeColor=none;fillColor=none;align=left;verticalAlign=top;spacingLeft=4;spacingRight=4;overflow=hidden;rotatable=0;points=[[0,0.5],[1,0.5]];portConstraint=eastwest;fontSize=12;movable=0;resizable=0;deletable=0;editable=0;connectable=0;" parent="174" vertex="1">
                    <mxGeometry y="26" width="160" height="28" as="geometry"/>
                </mxCell>
                <mxCell id="176" value="" style="line;strokeWidth=1;fillColor=none;align=left;verticalAlign=middle;spacingTop=-1;spacingLeft=3;spacingRight=3;rotatable=0;labelPosition=right;points=[];portConstraint=eastwest;strokeColor=inherit;fontSize=14;movable=0;resizable=0;deletable=0;editable=0;connectable=0;" parent="174" vertex="1">
                    <mxGeometry y="54" width="160" height="8" as="geometry"/>
                </mxCell>
                <mxCell id="177" value="+ExecuteStrategy()" style="text;strokeColor=none;fillColor=none;align=left;verticalAlign=top;spacingLeft=4;spacingRight=4;overflow=hidden;rotatable=0;points=[[0,0.5],[1,0.5]];portConstraint=eastwest;fontSize=12;movable=0;resizable=0;deletable=0;editable=0;connectable=0;" parent="174" vertex="1">
                    <mxGeometry y="62" width="160" height="28" as="geometry"/>
                </mxCell>
                <mxCell id="179" value="" style="endArrow=block;dashed=1;endFill=0;endSize=12;html=1;fontFamily=Helvetica;fontSize=14;fontColor=default;movable=0;resizable=0;rotatable=0;deletable=0;editable=0;connectable=0;" parent="200" edge="1">
                    <mxGeometry width="160" relative="1" as="geometry">
                        <mxPoint x="600" y="360" as="sourcePoint"/>
                        <mxPoint x="690" y="250" as="targetPoint"/>
                        <Array as="points">
                            <mxPoint x="600" y="310"/>
                            <mxPoint x="690" y="310"/>
                        </Array>
                    </mxGeometry>
                </mxCell>
                <mxCell id="180" value="&lt;font style=&quot;font-size: 12px;&quot;&gt;Implement&lt;/font&gt;" style="edgeLabel;html=1;align=center;verticalAlign=middle;resizable=0;points=[];fontSize=14;fontFamily=Helvetica;fontColor=default;movable=0;rotatable=0;deletable=0;editable=0;connectable=0;" parent="179" vertex="1" connectable="0">
                    <mxGeometry x="-0.2162" y="2" relative="1" as="geometry">
                        <mxPoint as="offset"/>
                    </mxGeometry>
                </mxCell>
                <mxCell id="181" value="" style="endArrow=block;dashed=1;endFill=0;endSize=12;html=1;fontFamily=Helvetica;fontSize=14;fontColor=default;exitX=0.5;exitY=0;exitDx=0;exitDy=0;movable=0;resizable=0;rotatable=0;deletable=0;editable=0;connectable=0;" parent="200" source="168" edge="1">
                    <mxGeometry width="160" relative="1" as="geometry">
                        <mxPoint x="729.5" y="374" as="sourcePoint"/>
                        <mxPoint x="729.5" y="244" as="targetPoint"/>
                    </mxGeometry>
                </mxCell>
                <mxCell id="182" value="&lt;font style=&quot;font-size: 12px;&quot;&gt;Implement&lt;/font&gt;" style="edgeLabel;html=1;align=center;verticalAlign=middle;resizable=0;points=[];fontSize=14;fontFamily=Helvetica;fontColor=default;movable=0;rotatable=0;deletable=0;editable=0;connectable=0;" parent="181" vertex="1" connectable="0">
                    <mxGeometry x="-0.2162" y="2" relative="1" as="geometry">
                        <mxPoint as="offset"/>
                    </mxGeometry>
                </mxCell>
                <mxCell id="183" value="" style="endArrow=block;dashed=1;endFill=0;endSize=12;html=1;fontFamily=Helvetica;fontSize=14;fontColor=default;entryX=0.832;entryY=1.183;entryDx=0;entryDy=0;entryPerimeter=0;movable=0;resizable=0;rotatable=0;deletable=0;editable=0;connectable=0;" parent="200" target="163" edge="1">
                    <mxGeometry width="160" relative="1" as="geometry">
                        <mxPoint x="850" y="360" as="sourcePoint"/>
                        <mxPoint x="850" y="230" as="targetPoint"/>
                        <Array as="points">
                            <mxPoint x="850" y="310"/>
                            <mxPoint x="780" y="310"/>
                        </Array>
                    </mxGeometry>
                </mxCell>
                <mxCell id="184" value="&lt;font style=&quot;font-size: 12px;&quot;&gt;Implement&lt;/font&gt;" style="edgeLabel;html=1;align=center;verticalAlign=middle;resizable=0;points=[];fontSize=14;fontFamily=Helvetica;fontColor=default;movable=0;rotatable=0;deletable=0;editable=0;connectable=0;" parent="183" vertex="1" connectable="0">
                    <mxGeometry x="-0.2162" y="2" relative="1" as="geometry">
                        <mxPoint as="offset"/>
                    </mxGeometry>
                </mxCell>
                <mxCell id="185" value="" style="endArrow=diamondThin;endFill=0;endSize=24;html=1;fontFamily=Helvetica;fontSize=14;fontColor=default;entryX=1;entryY=0.5;entryDx=0;entryDy=0;exitX=0;exitY=0.5;exitDx=0;exitDy=0;movable=0;resizable=0;rotatable=0;deletable=0;editable=0;connectable=0;" parent="200" source="160" target="175" edge="1">
                    <mxGeometry width="160" relative="1" as="geometry">
                        <mxPoint x="440" y="260" as="sourcePoint"/>
                        <mxPoint x="600" y="260" as="targetPoint"/>
                    </mxGeometry>
                </mxCell>
                <mxCell id="187" value="has-a" style="edgeLabel;html=1;align=center;verticalAlign=middle;resizable=0;points=[];fontSize=12;fontFamily=Helvetica;fontColor=default;movable=0;rotatable=0;deletable=0;editable=0;connectable=0;" parent="185" vertex="1" connectable="0">
                    <mxGeometry x="0.3738" y="-3" relative="1" as="geometry">
                        <mxPoint as="offset"/>
                    </mxGeometry>
                </mxCell>
                <mxCell id="186" value="client" style="html=1;strokeColor=default;fontFamily=Helvetica;fontSize=12;fontColor=default;startSize=26;fillColor=default;movable=0;resizable=0;rotatable=0;deletable=0;editable=0;connectable=0;" parent="200" vertex="1">
                    <mxGeometry x="30" y="160" width="110" height="50" as="geometry"/>
                </mxCell>
                <mxCell id="188" value="Use" style="endArrow=open;endSize=12;dashed=1;html=1;fontFamily=Helvetica;fontSize=12;fontColor=default;movable=0;resizable=0;rotatable=0;deletable=0;editable=0;connectable=0;" parent="200" edge="1">
                    <mxGeometry width="160" relative="1" as="geometry">
                        <mxPoint x="140" y="190" as="sourcePoint"/>
                        <mxPoint x="280" y="190" as="targetPoint"/>
                    </mxGeometry>
                </mxCell>
                <mxCell id="189" value="Use" style="endArrow=open;endSize=12;dashed=1;html=1;fontFamily=Helvetica;fontSize=12;fontColor=default;entryX=0;entryY=-0.096;entryDx=0;entryDy=0;entryPerimeter=0;movable=0;resizable=0;rotatable=0;deletable=0;editable=0;connectable=0;" parent="200" target="163" edge="1">
                    <mxGeometry width="160" relative="1" as="geometry">
                        <mxPoint x="450" y="215.5" as="sourcePoint"/>
                        <mxPoint x="610" y="215.5" as="targetPoint"/>
                    </mxGeometry>
                </mxCell>
                <mxCell id="191" value="DI or Service Locator are responsible to send ConcreteStrategy to the context or client&lt;span style=&quot;&quot;&gt;&amp;nbsp;send that&lt;/span&gt;" style="shape=note2;boundedLbl=1;whiteSpace=wrap;html=1;size=25;verticalAlign=top;align=center;fontColor=#666666;movable=0;resizable=0;rotatable=0;deletable=0;editable=0;connectable=0;" parent="200" vertex="1">
                    <mxGeometry y="250" width="280" height="90" as="geometry"/>
                </mxCell>
                <mxCell id="195" value="" style="edgeStyle=none;html=1;fontColor=#666666;movable=0;resizable=0;rotatable=0;deletable=0;editable=0;connectable=0;" parent="200" source="194" target="177" edge="1">
                    <mxGeometry relative="1" as="geometry"/>
                </mxCell>
                <mxCell id="194" value="strategy.Execute();" style="shape=note2;boundedLbl=1;whiteSpace=wrap;html=1;size=25;verticalAlign=top;align=center;fontColor=#666666;movable=0;resizable=0;rotatable=0;deletable=0;editable=0;connectable=0;" parent="200" vertex="1">
                    <mxGeometry x="300" y="325" width="120" height="60" as="geometry"/>
                </mxCell>
                <mxCell id="198" value="" style="edgeStyle=none;html=1;fontColor=#666666;entryX=0.861;entryY=-0.071;entryDx=0;entryDy=0;entryPerimeter=0;movable=0;resizable=0;rotatable=0;deletable=0;editable=0;connectable=0;" parent="200" source="197" target="171" edge="1">
                    <mxGeometry relative="1" as="geometry"/>
                </mxCell>
                <mxCell id="197" value="Interchangeable logic or algorithms" style="shape=note2;boundedLbl=1;whiteSpace=wrap;html=1;size=25;verticalAlign=top;align=center;fontColor=#666666;movable=0;resizable=0;rotatable=0;deletable=0;editable=0;connectable=0;" parent="200" vertex="1">
                    <mxGeometry x="890" y="210" width="160" height="70" as="geometry"/>
                </mxCell>
                <mxCell id="199" value="&lt;div style=&quot;color: rgb(204, 204, 204); background-color: rgb(31, 31, 31); font-family: Consolas, &amp;quot;Courier New&amp;quot;, monospace; line-height: 19px;&quot;&gt;&lt;font style=&quot;font-size: 12px;&quot;&gt;Define a family of algorithms, encapsulate each one, and make them interchangeable. Strategy lets the algorithm vary independently from client that use it.&lt;/font&gt;&lt;/div&gt;" style="shape=note2;boundedLbl=1;whiteSpace=wrap;html=1;size=25;verticalAlign=top;align=center;movable=0;resizable=0;rotatable=0;deletable=0;editable=0;connectable=0;" parent="200" vertex="1">
                    <mxGeometry x="420" width="580" height="90" as="geometry"/>
                </mxCell>
            </root>
        </mxGraphModel>
    </diagram>
</mxfile>